<?xml version="1.0" standalone="no"?>
<!DOCTYPE svg PUBLIC "-//W3C//DTD SVG 20010904//EN"
 "http://www.w3.org/TR/2001/REC-SVG-20010904/DTD/svg10.dtd">
<svg version="1.0" xmlns="http://www.w3.org/2000/svg"
 width="1080.000000pt" height="1080.000000pt" viewBox="0 0 1080.000000 1080.000000"
 preserveAspectRatio="xMidYMid meet">

<rect width="100%" height="100%" fill="#ffffff"/>

<g transform="translate(0.000000,1080.000000) scale(0.100000,-0.100000)"
fill="#000000" stroke="none">
<path d="M7605 10586 c0 -14 6 -21 20 -21 13 0 21 7 21 17 0 9 -9 18 -21 20
-15 3 -20 -1 -20 -16z"/>
<path d="M7247 10564 c-8 -43 -36 -73 -81 -88 l-39 -13 35 -12 c44 -15 74 -46
85 -90 l9 -34 12 41 c13 43 52 82 83 82 10 0 21 5 24 10 3 6 -1 10 -9 10 -37
0 -70 26 -91 74 -22 49 -22 49 -28 20z"/>
<path d="M6689 10518 c-7 -25 -4 -34 12 -34 12 0 19 7 19 18 0 10 -7 18 -15
18 -8 0 -15 -1 -16 -2z"/>
<path d="M6850 10285 l31 -45 -33 -1 -33 -1 28 -10 c32 -12 34 -19 6 -44 -11
-10 -25 -27 -31 -38 -7 -13 2 -10 35 13 l45 31 8 -28 7 -27 6 29 6 30 36 -32
c48 -42 55 -40 24 5 -32 48 -32 53 8 54 l32 1 -33 9 c-37 11 -37 12 17 73 l26
28 -50 -31 -50 -32 -6 33 -5 33 -10 -34 -10 -34 -36 31 c-49 44 -54 40 -18
-13z"/>
<path d="M6314 10270 c-1 -21 4 -26 25 -26 22 -1 26 3 26 25 0 21 -5 26 -25
26 -20 0 -25 -5 -26 -25z"/>
<path d="M7633 10258 c21 -34 21 -38 0 -38 -15 0 -15 -1 1 -13 16 -12 16 -14
2 -26 -26 -21 -18 -33 9 -15 20 13 25 13 25 3 0 -11 2 -11 10 1 7 12 13 11 34
-10 28 -26 34 -17 10 15 -13 18 -13 20 3 27 17 6 17 7 1 7 -24 1 -23 10 4 38
24 26 14 30 -17 7 -18 -13 -20 -13 -27 3 -6 17 -7 17 -7 1 -1 -24 -10 -23 -40
5 l-25 22 17 -27z"/>
<path d="M5953 10238 c21 -34 21 -35 0 -41 -17 -4 -17 -5 0 -6 23 -1 22 -10
-5 -40 l-23 -25 27 17 c34 21 38 21 38 0 0 -15 1 -15 13 1 12 16 14 16 26 2
21 -26 33 -18 15 9 -15 24 -15 25 2 25 18 1 18 1 1 11 -18 10 -18 12 4 35 25
27 15 32 -16 8 -18 -13 -20 -13 -27 3 -6 17 -7 17 -7 1 -1 -24 -10 -23 -40 5
l-25 22 17 -27z"/>
<path d="M7373 10156 c-17 -22 -20 -22 -31 -8 -10 16 -11 16 -11 -1 -1 -14 -5
-16 -20 -7 -32 17 -36 12 -12 -14 21 -23 22 -25 4 -29 -16 -4 -16 -5 0 -6 20
-1 20 -1 6 -38 l-10 -28 24 23 c13 12 27 19 30 15 4 -3 7 -1 7 5 0 9 11 8 38
-3 l37 -15 -27 23 c-33 27 -34 34 -10 40 13 4 11 5 -6 6 -22 1 -22 2 -7 31 19
36 13 39 -12 6z"/>
<path d="M8658 10125 c5 -31 42 -35 39 -5 -1 10 -3 17 -5 15 -3 -2 -12 0 -22
5 -14 8 -16 5 -12 -15z"/>
<path d="M6256 10131 c-4 -5 -17 -8 -31 -6 -19 2 -23 -1 -15 -10 5 -6 7 -15 3
-18 -3 -4 -1 -7 5 -7 6 0 9 -8 6 -17 -5 -14 -4 -15 4 -4 6 8 20 12 35 9 24 -5
25 -4 10 18 -8 13 -12 28 -8 34 3 5 4 10 1 10 -3 0 -7 -4 -10 -9z"/>
<path d="M4981 10064 c-29 -35 -56 -64 -60 -64 -4 0 -14 19 -23 43 l-17 42 0
-47 c-1 -27 -3 -48 -5 -48 -6 0 -41 14 -111 44 -44 19 -54 22 -39 9 11 -10 44
-39 73 -64 l53 -47 -51 -17 c-28 -9 -51 -19 -51 -22 0 -3 25 -3 55 1 l55 6
-10 -25 c-5 -14 -17 -39 -25 -55 -41 -80 -35 -85 25 -20 l59 65 14 -35 c8 -19
17 -42 20 -50 3 -8 6 9 6 38 1 28 3 52 5 52 2 0 39 -16 82 -35 l79 -35 -70 63
-69 64 52 17 c29 10 52 19 52 21 0 2 -25 1 -55 -2 -30 -3 -55 -3 -55 -1 0 3
16 40 35 83 20 43 34 79 33 80 -2 1 -27 -26 -57 -61z"/>
<path d="M3051 10118 c-1 -3 10 -53 23 -110 43 -181 59 -294 54 -394 -2 -51
-7 -96 -11 -100 -14 -14 -107 16 -279 90 -21 9 -38 14 -38 12 0 -3 42 -34 93
-69 50 -36 109 -83 130 -105 l38 -39 -41 -35 c-60 -52 -141 -92 -307 -152
-214 -77 -213 -75 -4 -30 64 14 163 27 221 31 l105 5 -125 -83 c-148 -99 -330
-238 -454 -344 -78 -69 -91 -76 -111 -67 -14 7 -26 25 -33 49 -10 37 -10 38
-11 7 -1 -36 -28 -64 -62 -65 -20 0 -19 -2 10 -12 70 -25 66 -34 -75 -179
-367 -379 -626 -742 -851 -1193 -415 -830 -571 -1742 -457 -2665 34 -281 125
-668 225 -955 504 -1461 1717 -2587 3210 -2980 892 -235 1805 -204 2694 90
296 99 590 234 898 412 42 25 77 46 77 48 0 2 -47 -18 -105 -46 -449 -210
-924 -345 -1450 -411 -146 -19 -223 -22 -540 -22 -390 -1 -463 4 -745 50
-1385 227 -2597 1067 -3301 2287 -343 593 -558 1306 -610 2016 -14 202 -7 608
16 810 92 833 409 1637 905 2296 251 333 507 598 818 847 68 54 132 98 142 98
11 0 20 -2 20 -4 0 -20 -60 -187 -91 -255 -22 -46 -39 -86 -39 -89 0 -3 28 35
63 86 34 50 84 117 111 148 l50 57 38 -43 c52 -59 109 -176 174 -361 30 -85
52 -140 48 -124 -3 17 -19 93 -36 170 -24 109 -31 167 -32 260 -1 159 -2 157
70 138 32 -8 102 -34 157 -59 56 -24 102 -42 104 -40 2 1 -20 19 -49 38 -86
57 -208 159 -208 173 0 43 165 132 391 210 85 30 150 54 146 54 -5 1 -56 -10
-115 -24 -216 -49 -363 -65 -447 -46 -27 6 -30 10 -28 43 2 37 34 124 87 243
32 70 27 66 -42 -35 -28 -41 -75 -102 -104 -134 l-52 -59 -32 38 c-52 59 -113
187 -175 365 -32 91 -58 162 -58 158z"/>
<path d="M5530 10100 c0 -12 7 -18 18 -17 10 0 18 8 18 17 0 9 -8 17 -18 17
-11 1 -18 -5 -18 -17z"/>
<path d="M5727 10085 c-3 -18 0 -21 20 -17 28 5 32 38 4 38 -12 0 -21 -9 -24
-21z"/>
<path d="M7051 10043 c-1 -12 -9 -27 -18 -33 -17 -11 -17 -11 0 -6 9 3 17 1
17 -5 0 -6 4 -8 9 -5 5 4 12 0 14 -6 4 -10 6 -9 6 1 1 8 9 23 19 34 16 19 16
20 0 14 -10 -4 -18 -2 -18 4 0 6 -4 8 -9 5 -5 -4 -12 0 -14 6 -3 7 -6 3 -6 -9z"/>
<path d="M8291 10028 c-1 -31 -4 -36 -18 -31 -15 6 -16 4 -5 -9 11 -14 9 -18
-15 -26 l-28 -10 32 -1 c27 -1 31 -4 26 -18 -6 -15 -4 -16 9 -5 13 11 17 8 23
-20 l9 -33 3 33 c3 26 8 32 20 28 13 -5 14 -4 4 8 -11 13 -7 18 21 30 l33 15
-39 -6 c-38 -6 -38 -5 -25 18 11 22 11 23 -5 10 -19 -16 -20 -16 -34 24 l-10
30 -1 -37z"/>
<path d="M7934 10019 c-17 -19 -19 -19 -31 -3 -12 17 -13 16 -13 -4 0 -22 -1
-22 -32 -7 l-33 16 27 -25 c26 -23 26 -26 10 -35 -16 -10 -16 -10 1 -11 20 0
21 -4 6 -33 -11 -21 -10 -21 15 2 18 17 26 20 26 10 0 -11 2 -11 8 -1 7 10 15
10 38 2 l29 -11 -23 24 c-17 18 -20 26 -10 30 8 4 7 6 -5 6 -16 1 -16 3 -2 31
18 35 15 38 -11 9z"/>
<path d="M6514 10009 c0 -10 10 -19 21 -22 18 -3 21 0 17 19 -5 27 -38 29 -38
3z"/>
<path d="M5575 9960 c-71 -5 -161 -14 -200 -18 -65 -9 -60 -10 72 -11 489 -4
1013 -90 1450 -237 646 -217 1184 -532 1694 -990 683 -614 1174 -1432 1399
-2330 106 -427 146 -792 137 -1254 -8 -374 -42 -655 -123 -990 -35 -148 -122
-449 -133 -462 -4 -4 -29 148 -55 337 -27 190 -50 344 -52 343 -1 -2 -28 -181
-59 -398 -31 -217 -57 -396 -58 -397 -1 -1 -74 52 -162 118 -88 65 -180 134
-205 151 l-45 33 22 -30 c12 -17 80 -109 151 -205 72 -96 129 -176 129 -177
-1 0 -177 -27 -392 -58 -337 -49 -433 -65 -388 -65 13 0 766 -110 775 -113 3
-1 -52 -81 -124 -177 -71 -96 -139 -188 -151 -205 l-21 -30 34 26 c19 14 111
83 205 153 93 70 171 123 172 119 2 -4 28 -181 58 -392 30 -211 57 -387 60
-389 3 -3 5 -1 5 5 0 16 110 776 113 779 1 1 92 -65 201 -147 110 -82 201
-149 204 -149 2 0 -7 15 -20 33 -14 17 -82 108 -152 202 l-127 170 33 7 c18 3
196 30 395 59 199 29 361 55 359 57 -3 2 -522 80 -765 114 -22 3 -13 19 127
205 84 112 150 203 147 203 -3 0 -95 -68 -205 -150 -110 -83 -200 -144 -200
-137 0 7 25 71 56 143 197 456 297 847 356 1384 19 174 16 680 -5 868 -106
947 -478 1799 -1083 2482 -419 473 -903 838 -1464 1104 -442 210 -943 348
-1450 401 -182 19 -545 26 -715 15z"/>
<path d="M5620 9789 c0 -24 26 -25 32 -1 4 12 -1 18 -13 19 -13 1 -19 -5 -19
-18z"/>
<path d="M5341 9747 l-1 -58 -32 17 -33 17 24 -27 24 -26 -34 -14 c-19 -7 -41
-16 -49 -19 -8 -3 9 -6 39 -6 43 -1 52 -4 47 -16 -17 -43 -18 -49 -2 -27 25
32 32 28 51 -28 9 -27 19 -50 22 -50 3 0 3 25 1 55 -3 38 -1 54 6 51 51 -21
52 -20 28 6 l-22 24 55 18 c30 9 55 19 55 22 0 3 -27 2 -61 -2 l-61 -7 16 31
c23 45 20 52 -8 17 -19 -23 -26 -27 -30 -15 -3 8 -12 33 -20 55 l-15 40 0 -58z"/>
<path d="M7954 9775 c0 -13 7 -20 21 -20 13 0 20 7 20 20 0 13 -7 20 -20 20
-14 0 -21 -7 -21 -20z"/>
<path d="M7598 9759 c-7 -5 -8 -9 -3 -9 6 0 3 -5 -5 -10 -12 -8 -13 -10 -1
-10 8 0 23 -8 33 -17 16 -14 18 -14 13 -1 -3 8 1 22 9 31 14 13 13 15 -9 19
-13 3 -30 1 -37 -3z"/>
<path d="M5814 9727 c18 -27 18 -27 -5 -28 -17 -1 -19 -3 -6 -6 9 -2 17 -9 17
-15 0 -6 -8 -21 -17 -32 -18 -20 -18 -20 9 -3 34 21 38 21 39 0 0 -17 1 -17 8
0 6 17 9 17 36 -5 28 -22 27 -10 -3 25 -14 15 -13 17 9 18 17 1 19 3 7 6 -22
6 -22 7 -1 40 l18 26 -29 -18 c-23 -16 -29 -16 -37 -4 -6 10 -9 11 -9 1 0 -9
-8 -8 -27 5 l-26 18 17 -28z"/>
<path d="M6438 9743 c-23 -6 -23 -29 0 -35 14 -4 18 1 18 18 0 13 0 23 0 23
-1 -1 -9 -3 -18 -6z"/>
<path d="M6174 9639 c0 -10 9 -19 21 -21 15 -3 20 1 20 17 0 14 -6 21 -20 21
-13 0 -21 -7 -21 -17z"/>
<path d="M8229 9618 c0 -7 -2 -20 -4 -28 -1 -9 8 -21 21 -27 13 -6 24 -7 24
-2 0 18 2 24 12 37 8 9 7 11 -4 7 -9 -4 -23 1 -32 10 -12 12 -16 13 -17 3z"/>
<path d="M8756 9526 c6 -35 5 -38 -11 -32 -15 5 -16 4 -6 -8 10 -12 7 -18 -16
-31 l-28 -16 33 5 c19 3 32 1 32 -5 0 -6 4 -8 10 -4 5 3 16 -7 25 -22 l16 -28
-5 33 c-5 31 -4 33 17 27 22 -7 22 -7 2 9 -11 8 -15 16 -9 16 5 0 19 7 30 15
18 14 17 14 -14 9 -29 -6 -32 -4 -26 12 6 16 5 17 -7 6 -11 -10 -17 -7 -31 20
l-18 33 6 -39z"/>
<path d="M7047 9497 c5 -34 4 -37 -13 -30 -17 6 -17 5 -6 -9 12 -14 9 -19 -15
-32 l-28 -15 33 6 c27 5 32 2 32 -13 0 -16 2 -16 10 -4 10 17 12 15 33 -25
l16 -30 -6 39 c-5 35 -4 39 12 32 15 -5 16 -4 5 9 -14 17 -14 17 15 34 18 11
18 12 -7 8 -21 -3 -28 0 -28 11 0 13 -3 13 -12 4 -10 -10 -16 -5 -30 20 l-17
33 6 -38z"/>
<path d="M8523 9498 c-1 -12 5 -18 18 -18 12 0 19 7 19 18 0 10 -7 18 -18 18
-10 0 -19 -8 -19 -18z"/>
<path d="M2162 9453 c2 -10 10 -18 18 -18 8 0 16 8 18 18 2 12 -3 17 -18 17
-15 0 -20 -5 -18 -17z"/>
<path d="M6624 9443 c2 -16 -3 -36 -13 -47 -16 -19 -15 -19 9 -3 23 15 29 15
54 2 26 -14 27 -14 15 1 -10 13 -10 17 0 24 11 6 11 8 0 12 -12 4 -11 8 1 23
14 17 14 17 -7 7 -16 -9 -23 -9 -26 1 -4 9 -6 8 -6 -2 -1 -11 -4 -11 -15 -2
-12 10 -14 8 -12 -16z"/>
<path d="M8975 9190 c0 -20 5 -25 25 -25 20 0 25 5 26 25 1 20 -4 25 -25 25
-21 0 -26 -5 -26 -25z"/>
<path d="M7860 9180 c0 -5 -11 -10 -25 -10 -23 0 -24 -2 -15 -20 6 -11 8 -26
4 -33 -6 -9 -4 -9 7 -1 8 6 24 10 36 9 20 -1 20 0 8 18 -7 11 -11 26 -8 33 3
8 2 14 -1 14 -3 0 -6 -4 -6 -10z"/>
<path d="M8580 9172 c0 -6 5 -14 11 -18 8 -4 7 -9 -2 -15 -12 -7 -12 -9 0 -9
11 0 11 -3 1 -15 -11 -13 -9 -15 11 -11 13 2 32 -1 42 -6 17 -9 17 -7 6 14
-13 24 -13 26 1 43 6 7 2 11 -11 11 -10 0 -19 -5 -19 -10 0 -5 -9 -1 -20 9
-11 10 -20 13 -20 7z"/>
<path d="M2296 9106 c-3 -14 -17 -28 -33 -34 l-28 -10 27 -10 c17 -7 30 -22
34 -38 6 -24 8 -25 16 -8 6 11 22 29 37 41 21 19 23 23 8 23 -9 0 -26 14 -36
31 l-19 30 -6 -25z"/>
<path d="M9280 9063 c0 -5 5 -14 12 -21 9 -9 8 -12 -7 -13 -11 0 -14 -3 -8 -6
10 -3 10 -10 1 -26 -9 -19 -9 -20 3 -11 8 6 23 11 34 11 11 0 27 -5 35 -11 13
-10 13 -9 1 7 -13 16 -13 20 0 28 11 7 11 9 0 9 -11 0 -11 3 -2 14 10 12 8 14
-16 12 -15 -2 -34 1 -40 6 -8 6 -13 6 -13 1z"/>
<path d="M8154 8902 c4 -6 2 -21 -4 -32 -7 -13 -7 -20 0 -20 20 0 25 -2 39
-13 12 -9 13 -9 7 0 -4 7 -2 22 4 33 7 13 7 20 0 21 -20 3 -25 4 -39 13 -10 6
-12 5 -7 -2z"/>
<path d="M8915 8855 c0 -25 32 -29 38 -4 3 11 -2 18 -17 21 -16 3 -21 -1 -21
-17z"/>
<path d="M1951 8856 c-21 -25 -4 -58 27 -54 23 2 27 8 27 33 0 23 -5 31 -21
33 -11 2 -26 -4 -33 -12z"/>
<path d="M9374 8659 c0 -10 10 -19 21 -22 18 -3 21 0 17 19 -5 27 -38 29 -38
3z"/>
<path d="M8305 8641 c0 -22 4 -27 20 -23 12 2 21 11 21 22 0 10 -4 16 -9 13
-4 -2 -13 0 -20 5 -9 8 -12 3 -12 -17z"/>
<path d="M4305 8654 c-11 -2 -45 -9 -75 -15 -79 -16 -188 -70 -241 -122 -86
-82 -138 -233 -123 -354 l6 -53 -68 29 c-96 40 -178 55 -282 49 -218 -13 -367
-139 -448 -378 -13 -39 -19 -84 -19 -155 0 -89 3 -107 28 -160 16 -33 37 -69
48 -81 l20 -21 -55 -27 c-70 -34 -108 -80 -135 -162 -47 -143 -13 -303 90
-433 52 -65 129 -115 228 -147 45 -14 81 -28 81 -29 0 -2 -28 -17 -63 -34
-125 -60 -239 -165 -292 -270 -23 -46 -30 -130 -15 -176 16 -48 72 -110 124
-138 33 -18 58 -22 132 -22 85 0 95 2 169 39 43 21 80 35 82 30 12 -35 48 -76
82 -94 51 -26 103 -25 158 1 l44 21 41 -46 c75 -86 189 -126 358 -126 179 0
370 41 477 101 l52 30 65 -53 c120 -99 251 -165 414 -210 113 -31 361 -31 483
-1 86 22 87 22 138 3 115 -44 378 -71 497 -51 95 16 183 61 237 121 l44 49 28
-19 c82 -54 208 -18 245 70 l11 27 81 -41 c75 -38 85 -41 162 -40 100 1 154
23 213 86 31 35 44 59 53 102 6 30 8 61 4 67 -4 6 -3 10 2 7 128 -60 206 -72
295 -43 135 44 256 162 302 297 5 15 12 14 68 -9 89 -36 205 -35 290 3 104 47
169 140 177 257 7 105 -29 179 -101 206 l-28 11 19 25 c52 65 55 204 6 302
-37 77 -107 145 -169 166 -73 25 -186 22 -257 -7 l-58 -24 0 57 c0 131 -70
229 -193 269 -129 42 -315 24 -449 -44 -104 -53 -198 -172 -198 -250 l0 -33
-58 31 c-124 64 -271 43 -376 -53 l-56 -51 0 43 c-1 65 -17 125 -57 209 -43
89 -156 208 -243 255 -51 28 -62 30 -160 30 l-105 0 0 66 c0 57 -6 77 -42 150
-100 202 -281 319 -493 320 -99 1 -188 -23 -263 -71 -26 -16 -49 -30 -51 -30
-2 0 -7 27 -11 59 -8 71 -49 160 -100 219 -112 129 -320 234 -520 261 -73 11
-208 13 -250 5z m334 -130 c256 -67 444 -236 467 -420 6 -48 3 -60 -15 -84
-40 -55 -18 -120 34 -100 11 4 49 34 85 65 119 104 237 146 359 126 134 -22
252 -102 330 -225 41 -66 71 -141 71 -180 0 -30 -20 -89 -34 -98 -6 -4 -7 -10
-4 -14 4 -4 31 3 59 16 120 51 264 6 381 -119 135 -143 181 -317 118 -442
l-22 -42 -28 49 c-145 255 -545 287 -757 60 -68 -73 -117 -162 -135 -246 l-11
-57 -45 -2 c-54 -2 -109 -31 -138 -72 l-22 -31 -7 32 c-9 42 -72 105 -116 118
-20 5 -54 6 -80 1 -24 -4 -52 -9 -63 -11 -13 -2 -22 6 -30 27 -28 75 -77 114
-159 124 -51 6 -52 7 -59 46 -19 110 2 285 51 411 l28 73 -26 -17 c-50 -31
-136 -100 -170 -136 -19 -20 -38 -36 -42 -36 -4 0 -30 16 -59 35 -142 96 -338
107 -496 30 -120 -58 -214 -181 -214 -279 0 -20 -4 -21 -128 -21 -150 -1 -217
-19 -322 -90 -94 -64 -159 -157 -160 -227 0 -35 -5 -35 -61 0 -140 89 -199
283 -130 426 31 62 96 106 158 106 43 0 83 27 83 57 0 7 -25 41 -56 74 -80 88
-97 131 -92 239 3 73 9 97 40 162 66 139 154 209 289 229 133 19 345 -32 408
-100 24 -25 32 -28 62 -22 38 8 38 9 19 71 -8 26 -14 95 -14 165 -1 112 1 123
26 171 15 28 44 66 64 84 51 45 148 88 220 99 86 14 235 2 343 -25z m3055
-1041 c81 -23 139 -79 154 -149 10 -47 3 -157 -13 -195 -12 -30 40 -33 68 -5
57 57 245 79 323 38 82 -42 144 -147 144 -242 0 -54 -15 -87 -61 -137 -49 -53
-43 -77 22 -86 81 -11 127 -92 108 -192 -17 -91 -64 -144 -151 -170 -107 -32
-189 -10 -278 72 -56 51 -64 55 -88 47 -21 -8 -26 -16 -25 -34 9 -99 4 -140
-23 -190 -16 -29 -49 -70 -74 -92 -166 -148 -367 -114 -502 85 -30 45 -44 58
-59 54 -12 -3 -43 11 -82 37 -35 23 -83 51 -108 61 l-44 18 31 34 c87 94 60
240 -64 354 -84 77 -240 139 -350 139 -37 0 -42 3 -42 23 0 40 58 143 104 185
45 41 137 82 185 82 54 0 129 -32 188 -81 32 -27 66 -49 76 -49 26 0 32 28 13
62 -22 36 -15 85 19 144 87 150 342 240 529 187z m-3222 -74 c53 -17 168 -83
168 -95 0 -2 -18 -27 -40 -56 -61 -80 -137 -241 -166 -353 -35 -131 -39 -345
-10 -470 37 -159 119 -327 217 -446 27 -32 49 -60 49 -62 0 -12 -153 -77 -214
-92 -136 -33 -341 -44 -438 -24 -79 17 -165 66 -203 117 -19 24 -36 49 -38 55
-2 8 -19 1 -47 -18 -35 -24 -54 -30 -96 -30 -47 0 -57 4 -88 34 -19 19 -38 47
-41 62 -9 41 -18 43 -67 10 -56 -38 -155 -71 -212 -71 -135 0 -237 93 -237
215 0 130 164 311 342 376 l59 22 -44 41 c-146 136 -21 368 239 445 69 21 93
23 197 19 l118 -5 0 46 c1 118 107 233 260 282 79 26 213 25 292 -2z m1659
-169 c86 -16 191 -73 242 -131 47 -53 77 -127 77 -186 l0 -34 48 8 c256 44
532 -99 558 -290 10 -74 -2 -114 -52 -163 -48 -48 -51 -54 -30 -54 39 0 183
-87 250 -151 97 -92 130 -153 131 -241 0 -58 -4 -72 -30 -110 -20 -28 -49 -52
-84 -70 -97 -49 -236 -32 -339 40 -39 28 -48 28 -56 -3 -9 -37 -62 -92 -101
-105 -41 -13 -90 -2 -136 31 l-32 23 -16 -24 c-57 -88 -147 -142 -266 -161
-115 -18 -374 9 -479 50 -29 12 -29 12 53 51 150 73 292 187 385 310 133 177
212 425 204 639 l-3 85 -39 -63 c-21 -34 -66 -92 -99 -128 -162 -173 -356
-266 -582 -280 -228 -13 -469 69 -621 210 l-56 52 24 34 c52 77 116 97 194 60
27 -13 52 -25 55 -26 4 -2 9 13 13 34 14 87 68 135 160 143 l61 5 8 55 c16
113 102 248 198 312 112 74 237 101 360 78z m-1208 -274 c45 -18 86 -70 93
-117 4 -22 10 -41 14 -44 4 -2 25 5 46 16 29 15 52 19 93 16 48 -3 59 -9 91
-44 26 -27 40 -53 45 -82 4 -23 5 -44 2 -47 -2 -2 -26 1 -53 7 -82 19 -162
-15 -201 -86 -10 -17 -13 -17 -28 -5 -62 51 -165 251 -190 368 -6 31 -5 32 25
32 17 0 45 -6 63 -14z"/>
<path d="M8125 8561 c-6 -11 9 -23 19 -14 9 9 7 23 -3 23 -6 0 -12 -4 -16 -9z"/>
<path d="M1638 8500 c-9 -17 -24 -30 -33 -30 -8 0 -15 -4 -15 -10 0 -5 7 -10
15 -10 8 0 24 -14 34 -31 l19 -30 6 25 c4 16 16 28 31 32 32 8 32 20 1 28 -14
3 -28 17 -33 31 l-8 25 -17 -30z"/>
<path d="M9325 8371 c-1 -23 3 -28 25 -28 21 0 26 5 26 24 0 16 -5 23 -15 21
-9 -1 -21 0 -26 4 -6 3 -10 -5 -10 -21z"/>
<path d="M2403 8368 c-1 -11 5 -18 16 -18 10 0 21 8 23 18 4 12 -1 17 -17 17
-13 0 -22 -7 -22 -17z"/>
<path d="M9485 8319 c3 -9 -1 -24 -10 -33 -15 -14 -15 -16 -1 -16 9 0 19 0 22
1 4 0 10 -4 13 -10 4 -6 12 3 18 19 10 26 9 30 -6 30 -9 0 -23 6 -30 13 -10
10 -11 9 -6 -4z"/>
<path d="M8840 8286 c0 -8 -7 -22 -16 -30 -14 -15 -14 -16 0 -16 9 0 19 0 22
1 4 0 10 -4 14 -10 4 -7 11 -2 18 14 6 14 7 25 2 25 -4 0 -16 7 -24 16 -14 13
-16 13 -16 0z"/>
<path d="M9760 8239 c-23 -20 -25 -20 -31 -2 -7 16 -8 17 -8 1 -1 -22 -10 -23
-41 -1 l-25 18 23 -30 c22 -27 22 -30 5 -36 -17 -7 -17 -8 0 -8 21 -1 22 -10
0 -41 l-16 -25 24 23 c30 27 36 27 42 5 4 -16 5 -16 6 1 1 10 6 16 14 13 52
-22 53 -21 29 5 -22 24 -22 27 -5 31 16 4 16 5 1 6 -22 1 -23 10 -2 39 19 27
16 27 -16 1z"/>
<path d="M8410 8235 c0 -8 5 -15 10 -15 6 0 10 7 10 15 0 8 -4 15 -10 15 -5 0
-10 -7 -10 -15z"/>
<path d="M1437 8189 c-28 -39 5 -79 52 -64 40 12 24 85 -19 85 -10 0 -25 -9
-33 -21z"/>
<path d="M1208 8058 c-7 -59 -19 -75 -72 -90 l-41 -11 38 -7 c48 -9 68 -29 77
-77 l7 -38 12 42 c13 46 42 73 78 73 13 0 23 5 23 10 0 6 -11 10 -24 10 -38 0
-74 39 -84 90 l-8 45 -6 -47z"/>
<path d="M8815 7995 c0 -13 7 -21 17 -21 9 0 18 9 20 21 3 15 -1 20 -16 20
-14 0 -21 -6 -21 -20z"/>
<path d="M9808 7963 c-4 -13 1 -18 17 -18 13 0 22 7 22 18 1 10 -5 17 -16 17
-10 0 -21 -8 -23 -17z"/>
<path d="M2036 7883 c-10 -45 -41 -80 -76 -88 -34 -7 -50 -25 -23 -25 40 0 81
-38 96 -87 11 -36 15 -42 16 -22 2 43 42 92 84 104 37 11 41 25 6 25 -28 0
-68 41 -83 85 l-13 40 -7 -32z"/>
<path d="M10155 7880 c-8 -13 -1 -24 14 -19 6 3 7 10 2 18 -6 10 -10 10 -16 1z"/>
<path d="M8954 7709 c0 -10 9 -19 21 -21 15 -3 20 1 20 19 0 16 -5 22 -20 21
-12 -1 -21 -9 -21 -19z"/>
<path d="M967 7643 c-5 -24 -13 -34 -33 -39 l-26 -7 31 -13 c24 -10 31 -20 32
-41 1 -28 1 -28 10 4 7 25 17 35 42 42 22 6 26 9 11 10 -24 1 -50 27 -56 56
-3 15 -6 12 -11 -12z"/>
<path d="M9123 7558 c9 -16 24 -39 33 -53 16 -25 16 -25 -12 -25 -30 0 -23
-16 11 -22 17 -3 15 -8 -19 -46 -45 -50 -40 -53 20 -12 l44 31 1 -38 1 -38 9
33 c11 38 19 40 45 11 10 -11 27 -25 38 -31 14 -7 11 1 -12 35 l-31 44 32 11
c32 10 32 10 5 11 -36 1 -35 12 3 56 37 41 31 44 -19 10 -47 -32 -52 -32 -53
8 -1 19 -3 24 -6 12 -10 -47 -12 -47 -60 -8 -43 35 -46 36 -30 11z"/>
<path d="M10043 7558 c9 -15 17 -30 17 -33 0 -3 -8 -5 -17 -6 -17 0 -17 -1 0
-8 17 -6 17 -9 -5 -36 l-23 -30 33 23 32 23 1 -23 c1 -17 3 -18 6 -5 2 9 7 17
9 17 3 0 17 -8 32 -17 l26 -18 -16 24 c-13 18 -15 28 -6 38 7 9 7 13 -1 13 -7
0 -5 10 6 27 l18 26 -28 -17 c-27 -18 -27 -18 -28 5 l-1 24 -7 -23 -6 -24 -30
24 -30 23 18 -27z"/>
<path d="M2172 7558 c-17 -17 -15 -53 3 -68 20 -17 62 -5 70 20 14 44 -41 80
-73 48z"/>
<path d="M10300 7214 c-24 -30 -47 -54 -51 -54 -4 0 -14 19 -23 43 l-16 42 5
-47 c2 -27 2 -48 0 -48 -3 0 -36 13 -73 30 l-67 30 58 -53 57 -53 -42 -16 -43
-17 43 0 c40 -1 43 -3 36 -23 -3 -13 -15 -40 -26 -61 -11 -22 -18 -40 -16 -42
2 -2 24 21 48 50 l45 55 17 -38 17 -37 0 38 c1 20 6 37 11 37 6 0 33 -12 61
-26 28 -14 53 -24 55 -21 2 2 -19 23 -47 46 -27 24 -47 46 -44 50 4 3 21 11
38 18 l32 11 -42 1 c-24 1 -43 3 -43 6 0 3 14 33 31 66 17 34 29 62 27 64 -2
1 -23 -22 -48 -51z"/>
<path d="M9459 7193 c-27 -7 -30 -38 -4 -38 15 0 21 6 21 23 0 12 0 21 0 21
-1 -1 -8 -3 -17 -6z"/>
<path d="M918 7150 c-8 -52 -43 -89 -86 -91 -21 -1 -17 -3 15 -10 50 -12 61
-24 72 -80 5 -24 9 -34 10 -21 1 12 7 38 15 56 11 26 23 36 52 44 l39 10 -32
7 c-43 10 -66 37 -73 88 l-6 42 -6 -45z"/>
<path d="M1976 7164 c-9 -8 -16 -19 -16 -24 0 -9 28 -40 36 -40 18 0 44 24 44
40 0 11 -9 24 -19 30 -25 13 -27 13 -45 -6z"/>
<path d="M1660 7132 c0 -16 -9 -27 -32 -37 -31 -13 -31 -13 -8 -17 14 -1 30
-13 36 -26 l11 -23 16 25 c9 13 27 27 39 29 l23 4 -23 2 c-14 0 -30 13 -42 34
-18 29 -20 30 -20 9z"/>
<path d="M9201 7001 c-10 -6 -10 -10 -1 -16 13 -8 24 -1 19 14 -3 6 -10 7 -18
2z"/>
<path d="M1942 6834 c-1 -23 -5 -62 -8 -88 l-7 -47 -24 38 c-14 21 -22 30 -19
20 3 -11 9 -31 13 -45 l6 -26 -44 34 c-71 54 -76 56 -38 15 19 -22 42 -49 49
-59 14 -18 13 -18 -10 -11 -24 7 -24 7 -5 -9 19 -14 15 -15 -59 -16 -96 0 -92
-13 7 -20 l72 -5 -30 -18 c-27 -16 -17 -16 24 1 17 6 13 0 -38 -73 l-36 -50
59 50 59 49 -6 -34 -6 -35 14 30 c13 29 13 27 22 -55 l8 -85 5 85 5 85 18 -33
c22 -39 32 -37 17 3 -6 15 -9 29 -7 32 2 2 28 -16 58 -39 l54 -43 -32 41 c-18
22 -39 47 -48 54 -29 24 11 39 110 41 l90 2 -104 10 -105 9 35 20 c25 14 28
17 9 12 -14 -4 -32 -9 -40 -12 -8 -3 3 18 24 47 21 28 36 54 34 56 -2 3 -22
-13 -43 -35 -47 -48 -56 -50 -44 -8 12 43 4 47 -12 6 -13 -32 -14 -30 -19 57
-4 50 -7 72 -8 49z"/>
<path d="M9581 6826 c-1 -24 -4 -28 -23 -23 -22 6 -22 5 -4 -8 17 -13 16 -15
-15 -29 l-34 -14 34 -1 c26 -1 32 -4 27 -17 -5 -14 -4 -15 9 -4 12 10 16 8 24
-11 10 -24 10 -24 10 3 1 20 5 26 16 22 10 -4 13 -2 10 8 -4 9 5 18 22 25 l28
11 -32 1 c-26 1 -31 4 -26 19 6 14 4 15 -9 4 -14 -11 -18 -9 -26 15 l-10 28
-1 -29z"/>
<path d="M10543 6780 c-21 -27 -40 -49 -43 -50 -3 0 -13 17 -22 38 l-18 37 4
-43 c3 -30 1 -42 -7 -39 -7 3 -37 14 -67 26 l-55 21 53 -47 53 -46 -38 -19
-38 -18 43 4 c23 2 42 3 42 1 0 -2 -13 -33 -30 -70 -34 -75 -28 -76 26 -5 38
50 54 61 54 38 1 -7 7 -26 15 -43 14 -30 14 -29 9 18 -7 54 -16 53 91 8 l50
-21 -25 22 c-14 13 -41 36 -59 51 -18 15 -32 29 -30 30 2 2 20 10 39 19 l35
17 -44 -6 c-36 -5 -43 -3 -39 8 40 100 47 119 44 119 -3 0 -22 -22 -43 -50z"/>
<path d="M620 6650 c-15 -29 -3 -59 26 -66 30 -8 54 11 54 40 0 46 -59 64 -80
26z"/>
<path d="M9305 6642 c2 -3 0 -12 -4 -21 -7 -13 -4 -16 15 -16 17 0 24 6 24 20
0 14 -7 21 -20 21 -10 0 -17 -2 -15 -4z"/>
<path d="M239 6446 l32 -46 -26 0 c-15 0 -24 -4 -20 -10 3 -5 15 -10 26 -10
18 0 16 -6 -18 -47 -38 -46 -34 -48 20 -10 30 20 42 16 50 -18 4 -15 5 -13 6
8 1 35 8 34 56 -5 l40 -33 -28 47 -27 46 28 10 27 10 -27 1 c-16 1 -28 4 -28
7 0 3 17 26 38 52 l37 46 -47 -32 c-55 -38 -58 -38 -58 -12 0 11 -4 20 -10 20
-5 0 -10 -9 -10 -20 0 -26 -12 -25 -36 1 -10 11 -27 25 -38 31 -13 7 -10 -2
13 -36z"/>
<path d="M9548 6443 c-4 -13 1 -18 16 -18 14 0 22 6 22 18 0 9 -8 17 -17 17
-9 0 -19 -8 -21 -17z"/>
<path d="M1539 6410 c-18 -22 -35 -40 -39 -40 -3 0 -11 12 -18 28 l-12 27 5
-33 c4 -31 3 -33 -18 -26 -12 3 -34 13 -49 20 -44 23 -44 16 1 -23 l43 -36
-33 -18 -34 -18 38 6 c20 3 37 3 37 0 0 -3 -9 -27 -20 -54 l-20 -48 38 44 38
43 11 -23 12 -24 0 24 c1 26 7 26 76 -4 l40 -17 -42 37 c-24 20 -43 40 -43 45
0 5 12 13 28 19 l27 11 -32 -3 c-38 -4 -40 2 -13 61 10 23 17 42 15 42 -2 0
-19 -18 -36 -40z"/>
<path d="M9762 6288 c-16 -16 -22 -18 -22 -8 0 13 -2 13 -9 1 -8 -13 -14 -13
-38 -2 l-28 13 21 -24 c21 -23 24 -55 9 -93 -5 -13 0 -10 15 9 22 27 24 27 37
10 12 -17 13 -17 13 0 0 12 5 16 15 12 42 -17 47 -16 22 4 -26 21 -27 23 -10
36 17 13 17 14 1 8 -20 -7 -23 8 -8 37 14 25 10 24 -18 -3z"/>
<path d="M831 6247 c-14 -21 -14 -21 -22 -2 -6 17 -8 17 -8 3 -1 -15 -5 -16
-28 -8 -28 10 -28 10 -7 -8 12 -10 20 -28 20 -44 -1 -22 1 -25 12 -16 10 9 16
8 23 -3 7 -11 9 -11 9 4 0 15 3 16 23 6 21 -12 21 -11 4 8 -9 11 -14 23 -10
26 3 4 1 7 -6 7 -9 0 -9 5 -1 21 16 28 8 33 -9 6z"/>
<path d="M18 6243 c7 -12 9 -28 6 -37 -4 -10 0 -14 13 -12 10 2 23 0 28 -4 6
-5 10 4 10 24 0 26 -3 32 -18 28 -9 -2 -25 2 -34 9 -15 13 -15 12 -5 -8z"/>
<path d="M10438 6219 c-27 -15 -24 -67 5 -78 46 -18 84 33 51 70 -19 21 -31
23 -56 8z"/>
<path d="M432 6200 c3 -8 1 -23 -4 -32 -5 -10 -5 -18 -1 -19 4 0 15 -2 23 -4
9 -1 21 8 27 21 6 13 7 21 1 18 -5 -3 -19 2 -30 13 -16 13 -20 14 -16 3z"/>
<path d="M10605 6011 c-8 -36 -40 -67 -85 -79 l-35 -9 30 -8 c59 -16 85 -45
98 -110 2 -14 7 -8 17 23 14 46 45 74 95 87 l30 8 -35 8 c-39 8 -90 59 -90 89
0 30 -18 24 -25 -9z"/>
<path d="M1450 5926 c0 -7 8 -16 18 -18 12 -4 18 1 18 13 0 12 -7 19 -18 19
-10 0 -18 -6 -18 -14z"/>
<path d="M9800 5875 c-23 -30 -45 -55 -49 -55 -3 0 -13 17 -22 38 l-16 37 5
-42 c2 -24 2 -43 -1 -43 -4 0 -32 11 -63 25 -32 14 -59 24 -61 22 -1 -2 19
-21 47 -43 27 -21 49 -42 50 -45 0 -4 -17 -14 -37 -23 l-38 -16 43 4 c23 2 42
2 42 0 0 -2 -11 -32 -25 -66 -14 -34 -25 -63 -25 -66 0 -2 21 21 47 52 l46 57
18 -38 17 -38 1 43 1 43 28 -15 c38 -19 102 -46 102 -42 0 2 -25 24 -56 50
l-56 46 43 20 44 20 -48 -6 c-54 -7 -53 -14 -8 89 11 26 19 47 17 47 -2 0 -23
-25 -46 -55z"/>
<path d="M638 5737 c2 -9 -2 -25 -9 -35 -13 -15 -12 -16 3 -4 9 8 26 11 37 7
15 -4 19 -2 16 12 -1 10 1 23 5 28 5 6 -4 10 -24 10 -26 0 -32 -3 -28 -18z"/>
<path d="M1334 5633 c-12 -8 -13 -13 -5 -13 10 0 10 -4 3 -12 -8 -10 -3 -13
19 -13 16 0 27 5 25 10 -2 6 1 18 5 27 7 13 5 16 -10 15 -11 0 -27 -7 -37 -14z"/>
<path d="M10565 5550 c-37 -41 24 -97 63 -58 18 18 14 56 -7 68 -27 14 -35 13
-56 -10z"/>
<path d="M3155 5537 c-164 -55 -268 -176 -296 -344 -15 -91 -2 -171 46 -272
46 -96 160 -211 307 -309 176 -118 213 -165 206 -263 -5 -65 -36 -114 -98
-156 -89 -61 -230 3 -230 104 0 57 69 92 114 58 60 -45 133 38 78 88 -27 24
-87 47 -125 47 -52 0 -134 -46 -165 -92 -54 -83 -39 -204 37 -291 82 -92 236
-120 354 -63 148 71 235 232 208 382 -24 129 -91 211 -271 333 -237 162 -318
289 -275 437 13 47 27 69 68 109 63 60 126 85 217 85 111 -1 181 -47 195 -130
8 -47 -21 -122 -55 -140 -35 -19 -73 -9 -88 23 -17 34 -34 42 -61 27 -15 -7
-21 -21 -21 -43 0 -80 86 -140 169 -117 42 11 104 57 122 91 5 10 14 42 19 71
25 130 -64 283 -200 346 -66 31 -191 40 -255 19z"/>
<path d="M152 5418 c-15 -15 -15 -51 0 -66 28 -28 78 -7 78 33 0 27 -18 45
-45 45 -12 0 -26 -5 -33 -12z"/>
<path d="M439 5393 c6 -12 16 -25 21 -28 16 -10 12 -25 -7 -26 -16 0 -16 -1 1
-8 14 -5 16 -10 8 -15 -7 -4 -17 -17 -23 -28 -11 -21 -11 -21 20 1 l31 22 1
-23 1 -23 7 23 6 24 19 -21 c29 -32 40 -25 16 9 l-21 30 23 1 c17 1 18 3 6 6
-23 6 -23 12 5 42 l22 25 -26 -16 c-35 -22 -68 -20 -98 6 l-24 21 12 -22z"/>
<path d="M1274 5386 c-10 -26 4 -48 28 -44 17 2 23 10 23 28 0 18 -6 26 -23
28 -13 2 -25 -3 -28 -12z"/>
<path d="M9766 5363 c-11 -48 -42 -81 -89 -94 l-42 -12 35 -11 c57 -18 69 -29
90 -82 14 -37 19 -43 20 -24 1 47 35 88 86 103 l46 13 -39 12 c-48 14 -78 45
-91 92 l-9 35 -7 -32z"/>
<path d="M1644 5353 c3 -3 1 -13 -3 -22 -7 -13 -4 -16 15 -16 30 0 33 30 3 38
-12 3 -18 3 -15 0z"/>
<path d="M10421 5172 c-1 -14 -13 -30 -33 -42 -30 -18 -31 -20 -10 -20 16 0
27 -9 37 -32 8 -18 14 -25 15 -16 0 25 28 48 58 49 26 1 26 1 -4 10 -35 10
-49 24 -57 54 -4 18 -5 18 -6 -3z"/>
<path d="M5885 5084 c-68 -35 -105 -89 -105 -153 0 -42 20 -71 49 -71 21 0 51
30 51 52 0 25 40 68 64 68 69 0 90 -65 107 -320 14 -227 7 -752 -11 -868 l-13
-82 -47 6 c-181 24 -325 -154 -247 -306 53 -104 154 -137 257 -83 51 27 77 56
125 138 9 15 21 -2 75 -101 146 -272 240 -369 399 -409 168 -44 358 55 415
215 28 78 27 182 -3 243 -46 95 -148 135 -220 85 -45 -30 -55 -49 -47 -82 9
-37 48 -53 89 -38 28 10 34 9 52 -8 29 -29 24 -89 -11 -148 -40 -64 -118 -106
-186 -98 -106 12 -176 73 -316 277 -50 74 -115 158 -145 187 l-53 53 18 101
c36 206 59 457 59 653 0 188 -13 380 -31 460 -24 107 -84 194 -155 226 -49 23
-130 24 -170 3z m107 -1514 c-4 -39 -44 -112 -73 -132 -33 -25 -71 -11 -89 31
-27 67 35 134 120 129 41 -3 45 -5 42 -28z"/>
<path d="M627 5083 c-4 -3 -7 -19 -7 -34 0 -19 6 -30 20 -34 39 -12 66 35 38
63 -13 13 -41 16 -51 5z"/>
<path d="M3852 5059 c-32 -8 -56 -25 -102 -72 -161 -165 -156 -356 10 -443 55
-29 162 -26 225 7 58 29 116 100 135 162 22 75 25 79 73 97 l47 18 0 -78 c0
-103 18 -229 36 -257 18 -29 57 -30 84 -3 23 23 25 57 9 214 -10 106 -10 107
16 151 27 47 75 80 103 71 39 -13 47 -46 49 -192 1 -103 5 -150 16 -170 53
-102 174 -117 259 -32 l38 38 43 -22 c62 -33 165 -32 232 3 58 29 116 100 135
162 22 76 27 83 67 95 43 13 123 76 123 97 0 7 -7 18 -15 25 -17 14 -14 15
-105 -35 -53 -29 -60 -30 -60 -10 0 23 -29 76 -59 108 -54 59 -132 83 -212 66
-42 -9 -60 -21 -110 -72 -94 -97 -138 -217 -110 -298 13 -37 -1 -59 -53 -86
-49 -26 -60 -3 -67 140 -4 98 -9 130 -27 164 -50 97 -154 128 -239 71 -42 -28
-53 -27 -53 3 0 23 -34 42 -60 34 -11 -4 -23 -18 -26 -33 -11 -54 -23 -69 -68
-90 -55 -26 -56 -26 -56 -7 0 25 -36 88 -67 116 -58 55 -134 75 -211 58z m119
-138 c37 -38 38 -61 2 -61 -32 0 -107 32 -118 49 -14 24 4 41 45 41 33 0 48
-6 71 -29z m1140 0 c37 -38 38 -61 2 -61 -32 0 -107 32 -118 49 -14 24 4 41
45 41 33 0 48 -6 71 -29z m-1261 -138 c19 -9 61 -18 92 -21 l57 -4 -19 -39
c-42 -82 -149 -93 -207 -21 -14 17 -17 72 -7 110 6 21 8 22 28 7 11 -9 37 -23
56 -32z m1140 0 c19 -9 61 -18 92 -21 l57 -4 -19 -39 c-35 -67 -111 -88 -177
-48 -19 12 -33 28 -32 38 1 9 -1 24 -6 34 -4 9 -4 33 0 53 6 35 7 35 28 20 12
-9 38 -24 57 -33z"/>
<path d="M1613 4863 l-50 -57 -16 45 -15 44 -1 -42 c-1 -24 -6 -43 -11 -43 -6
0 -33 12 -61 26 -28 14 -53 24 -55 21 -2 -2 18 -23 46 -46 27 -23 50 -46 50
-51 0 -5 -13 -11 -30 -15 -45 -10 -44 -21 2 -17 38 4 40 3 33 -19 -4 -13 -16
-41 -27 -62 -11 -22 -17 -41 -15 -43 2 -3 24 19 48 47 l43 52 18 -39 17 -39 3
42 3 41 65 -29 65 -29 -54 50 c-30 27 -53 51 -50 53 2 2 22 11 44 21 l40 17
-48 -6 c-46 -5 -48 -4 -41 18 3 12 17 43 30 70 14 26 22 47 20 47 -2 0 -26
-26 -53 -57z"/>
<path d="M9816 4887 c-4 -16 -19 -36 -36 -45 -36 -21 -37 -28 -6 -36 16 -4 29
-18 37 -40 l12 -34 16 31 c9 18 26 36 39 42 28 13 28 19 -3 33 -14 6 -31 26
-38 44 l-14 33 -7 -28z"/>
<path d="M314 4893 c4 -7 3 -13 -2 -13 -5 0 -9 -7 -9 -15 0 -8 4 -15 9 -15 5
0 6 -5 2 -12 -4 -6 -3 -8 4 -4 6 3 16 -2 22 -11 11 -17 11 -17 6 1 -4 11 1 27
11 39 14 15 15 19 3 15 -8 -3 -24 2 -34 11 -11 9 -16 10 -12 4z"/>
<path d="M10351 4698 c-1 -32 -25 -58 -54 -59 -18 0 -16 -3 10 -15 23 -10 35
-24 41 -46 l9 -33 8 27 c9 34 26 48 68 58 l32 8 -36 1 c-40 1 -56 15 -69 58
l-8 28 -1 -27z"/>
<path d="M6919 4589 c-15 -30 -6 -100 31 -229 16 -58 30 -106 30 -107 0 -2 -7
-3 -16 -3 -9 0 -41 -23 -71 -50 -70 -64 -99 -79 -170 -86 -63 -7 -133 14 -133
38 0 8 16 20 35 27 107 38 162 221 89 294 -71 71 -219 24 -276 -86 -29 -58
-35 -157 -14 -231 19 -65 76 -134 132 -161 37 -17 137 -22 191 -9 84 20 193
108 231 185 l19 38 48 -120 c26 -66 58 -133 72 -150 32 -38 74 -39 102 -3 30
38 95 214 126 341 l27 112 31 -20 c18 -10 41 -19 53 -19 19 0 20 -6 20 -87 -1
-72 3 -97 22 -138 48 -105 115 -147 231 -146 66 1 85 5 148 36 75 37 128 88
165 158 10 22 17 45 14 53 -12 31 -36 25 -96 -25 -88 -74 -114 -85 -196 -85
-57 -1 -76 3 -93 18 -27 25 -26 32 4 40 13 3 41 21 61 39 101 88 99 258 -3
286 -21 6 -43 11 -49 11 -25 0 -120 -35 -143 -52 -48 -36 -113 -19 -137 38
-15 35 -43 45 -61 22 -6 -7 -21 -44 -33 -83 -33 -100 -122 -297 -131 -288 -4
5 -42 95 -85 202 -43 107 -88 208 -99 225 -26 39 -59 45 -76 15z m-245 -205
c15 -40 -31 -122 -85 -149 l-29 -16 0 46 c0 25 7 59 15 75 27 52 86 78 99 44z
m1060 -27 c-2 -44 -26 -82 -75 -115 l-34 -24 -3 28 c-9 73 42 159 90 152 20
-3 23 -9 22 -41z"/>
<path d="M581 4569 c-1 -33 -30 -59 -67 -60 -27 -1 -26 -2 11 -13 32 -10 42
-19 52 -47 l11 -34 7 27 c9 34 26 48 68 58 l32 8 -30 1 c-41 2 -57 14 -72 53
-11 31 -12 31 -12 7z"/>
<path d="M10390 4348 c-40 -43 -13 -110 45 -110 58 0 86 71 45 112 -26 26 -64
25 -90 -2z"/>
<path d="M9486 4292 c-4 -13 -21 -32 -38 -41 l-29 -19 26 -6 c15 -4 30 -18 37
-34 l10 -27 10 27 c5 15 21 31 36 36 l27 9 -30 14 c-16 8 -32 25 -35 39 l-6
25 -8 -23z"/>
<path d="M626 4133 c-11 -48 -42 -81 -89 -94 l-42 -12 39 -13 c54 -19 74 -40
87 -88 l12 -41 13 46 c15 50 39 72 95 86 l33 9 -47 13 c-55 16 -65 26 -82 83
l-12 43 -7 -32z"/>
<path d="M1691 4035 c-7 -16 -14 -36 -16 -42 -6 -18 -66 -53 -90 -54 -12 0 -5
-6 19 -15 53 -19 74 -40 82 -80 8 -44 20 -43 28 1 8 39 42 70 88 80 l32 7 -39
14 c-48 16 -63 31 -80 80 l-13 39 -11 -30z"/>
<path d="M10498 4049 c-32 -18 -19 -79 16 -79 28 0 46 18 46 45 0 38 -28 54
-62 34z"/>
<path d="M785 3813 c32 -48 32 -53 -7 -54 -20 -1 -25 -3 -13 -6 48 -10 48 -12
9 -60 l-39 -47 47 32 c26 18 49 32 52 32 3 0 6 -15 7 -32 l1 -33 12 34 12 34
37 -33 c43 -38 47 -33 12 18 l-25 37 32 5 33 6 -33 8 -34 8 24 26 c52 58 54
66 7 34 -49 -33 -58 -32 -60 2 -1 15 -3 12 -8 -8 l-6 -30 -36 32 c-48 42 -55
40 -24 -5z"/>
<path d="M2052 3808 c-16 -16 -22 -18 -22 -8 0 12 -2 13 -9 1 -7 -11 -14 -10
-37 5 l-29 18 23 -25 22 -26 -22 -11 -23 -11 24 0 c23 -1 23 -2 6 -27 l-16
-25 24 16 c24 15 26 15 36 -2 9 -16 10 -16 11 5 0 22 1 22 25 6 27 -18 35 -5
10 16 -11 9 -12 16 -5 25 8 9 7 14 -1 17 -9 3 -9 9 0 26 15 28 11 28 -17 0z"/>
<path d="M8976 3741 c-18 -20 -50 -20 -87 -1 l-24 13 23 -25 c27 -29 27 -35 5
-41 -13 -3 -11 -5 6 -6 22 -1 23 -2 7 -26 -22 -33 -20 -42 4 -20 28 26 56 28
88 8 l27 -17 -28 31 c-26 28 -27 32 -10 36 16 4 16 5 0 6 -16 1 -16 3 -2 31
18 34 15 38 -9 11z"/>
<path d="M1988 3504 c-53 -28 -73 -105 -44 -163 44 -84 167 -89 216 -9 37 60
17 142 -42 174 -31 18 -97 17 -130 -2z"/>
<path d="M3603 3438 c-22 -35 -12 -640 13 -765 7 -38 27 -48 49 -26 15 14 16
50 9 338 l-7 323 26 26 c22 22 35 26 82 26 31 0 69 -7 86 -16 37 -19 68 -83
69 -141 0 -60 -6 -70 -40 -65 -16 2 -45 -1 -65 -8 -100 -33 -99 -200 1 -200
47 0 85 21 127 71 44 50 56 48 126 -26 80 -84 116 -95 169 -50 l30 25 6 -27
c20 -99 26 -158 21 -183 -12 -56 -84 -93 -93 -47 -3 12 4 20 18 24 28 7 22 37
-8 41 -27 4 -51 -13 -63 -46 -20 -51 47 -113 107 -98 100 25 135 132 100 303
-8 37 -17 97 -21 133 -10 104 -15 120 -35 120 -19 0 -24 -13 -35 -107 -6 -42
-13 -58 -37 -78 -37 -31 -66 -32 -73 -2 -3 12 -6 58 -7 101 -2 48 -7 81 -14
83 -20 7 -41 -25 -48 -71 l-7 -45 -37 26 -37 27 3 72 c9 162 -68 254 -210 254
-48 0 -73 -6 -105 -24 l-42 -24 -3 31 c-2 24 -8 33 -25 35 -11 2 -25 -3 -30
-10z m281 -354 c14 -5 14 -8 -1 -30 -9 -14 -29 -32 -45 -40 -25 -13 -29 -13
-34 0 -11 28 14 57 63 75 1 1 8 -2 17 -5z"/>
<path d="M4293 3273 c-22 -8 -15 -51 9 -59 28 -9 52 20 37 47 -10 19 -22 22
-46 12z"/>
<path d="M967 3263 c-12 -11 -8 -40 7 -52 28 -23 68 17 45 45 -12 15 -41 19
-52 7z"/>
<path d="M4115 3260 c-12 -20 6 -50 30 -50 15 0 26 7 30 20 9 27 -1 40 -30 40
-13 0 -27 -5 -30 -10z"/>
<path d="M2427 3224 c-4 -4 -7 -15 -7 -25 0 -29 -48 -76 -88 -87 l-37 -10 32
-7 c43 -10 82 -47 89 -85 4 -16 10 -30 14 -30 4 0 10 14 14 30 7 38 46 75 89
85 l32 7 -36 10 c-45 12 -74 42 -86 86 -5 18 -12 30 -16 26z"/>
<path d="M4760 3204 c-10 -12 -15 -42 -15 -98 -1 -69 -4 -86 -24 -113 -66 -89
-103 -21 -66 122 12 43 13 61 4 69 -8 8 -15 5 -25 -10 -15 -21 -15 -21 -52 -2
-43 22 -91 17 -133 -13 -37 -26 -52 -70 -47 -131 4 -42 11 -57 37 -80 35 -31
88 -37 130 -14 23 13 27 12 44 -10 26 -34 68 -31 112 7 31 28 35 29 35 11 0
-29 26 -48 45 -32 12 10 15 33 14 100 -1 83 10 130 31 130 9 0 17 -34 22 -94
6 -64 68 -55 68 10 0 41 16 84 31 84 9 0 10 -26 6 -97 -6 -113 6 -165 50 -200
35 -29 88 -31 103 -4 16 31 12 41 -19 41 -47 0 -55 19 -48 118 8 102 -4 154
-40 188 -32 29 -62 30 -96 4 -17 -14 -28 -17 -32 -9 -4 6 -25 9 -49 7 -31 -3
-45 0 -56 15 -15 18 -17 18 -30 1z m-186 -85 c21 -10 24 -16 19 -43 -13 -65
-64 -104 -98 -76 -23 19 -19 80 7 107 24 26 36 28 72 12z"/>
<path d="M5190 3172 c-44 -22 -80 -75 -80 -119 0 -45 23 -97 51 -117 29 -20
97 -20 123 -1 17 13 21 12 38 -10 32 -40 73 -34 124 20 38 39 44 42 49 25 4
-12 -2 -31 -16 -50 -31 -41 -30 -92 1 -125 68 -73 160 25 121 128 -9 23 -6 26
54 53 108 49 94 81 -18 41 l-66 -24 -15 39 c-21 50 -21 97 0 105 9 3 20 0 25
-8 6 -10 2 -16 -12 -21 -29 -11 -18 -33 17 -33 22 0 31 6 38 28 19 54 -42 100
-110 83 -32 -8 -55 -57 -53 -110 2 -36 -3 -51 -30 -85 -38 -47 -57 -51 -73
-15 -12 25 -11 31 19 187 4 20 1 27 -11 27 -9 0 -16 -3 -16 -7 -1 -28 -18 -32
-55 -13 -48 24 -61 25 -105 2z m104 -55 c36 -26 -12 -127 -60 -127 -45 0 -59
69 -23 114 22 28 55 34 83 13z m242 -272 c-3 -9 -10 -13 -16 -10 -12 7 -13 48
-3 59 11 11 27 -30 19 -49z"/>
<path d="M2035 3030 c1 -8 -1 -19 -5 -25 -5 -6 4 -10 23 -11 28 -1 32 2 32 25
0 21 -5 26 -26 26 -18 0 -26 -5 -24 -15z"/>
<path d="M8854 2885 c1 -5 6 -18 12 -27 9 -16 12 -15 27 11 l17 29 -29 -2
c-16 0 -28 -5 -27 -11z"/>
<path d="M926 2850 c6 -8 25 -34 43 -57 18 -24 30 -47 26 -53 -3 -5 -23 -11
-43 -11 l-37 -1 47 -12 47 -11 -39 -52 c-22 -28 -40 -54 -40 -58 0 -3 24 12
53 35 30 22 57 40 60 40 4 0 7 -16 7 -36 0 -21 4 -33 10 -29 6 3 10 19 10 36
0 16 2 29 5 29 3 0 30 -18 60 -40 30 -22 55 -38 55 -35 0 3 -19 29 -41 58
l-41 52 43 9 44 10 -38 5 c-21 4 -38 10 -39 15 0 4 16 30 36 57 20 27 36 51
36 54 0 3 -25 -13 -55 -36 -31 -23 -57 -40 -59 -38 -2 2 -8 22 -14 44 l-10 40
-1 -37 c-1 -20 -6 -40 -11 -43 -6 -4 -29 8 -53 26 -68 53 -74 56 -61 39z"/>
<path d="M2986 2748 c-8 -43 -42 -76 -83 -84 -38 -7 -45 -24 -9 -24 35 0 83
-44 94 -88 8 -31 10 -34 17 -17 4 11 12 33 17 48 11 28 53 57 83 57 8 0 15 5
15 10 0 6 -9 10 -21 10 -27 0 -89 62 -89 88 0 34 -17 34 -24 0z"/>
<path d="M2357 2706 c-11 -28 4 -47 32 -44 20 2 26 8 26 28 0 20 -6 26 -26 28
-17 2 -29 -3 -32 -12z"/>
<path d="M2672 2528 c-19 -20 -24 -21 -32 -8 -8 13 -10 12 -10 -3 0 -14 -4
-16 -19 -7 -30 16 -36 12 -15 -11 16 -17 16 -22 4 -29 -12 -8 -12 -10 4 -10
12 0 16 -5 12 -15 -20 -49 -20 -50 6 -27 19 17 27 20 31 10 4 -8 6 -7 6 5 1
16 4 16 39 2 l37 -15 -27 23 c-33 27 -34 34 -10 40 13 4 11 5 -6 6 -22 1 -22
2 -7 31 19 36 17 37 -13 8z"/>
<path d="M1405 2503 c-17 -26 -19 -26 -26 -8 -7 19 -8 19 -8 1 -1 -13 -6 -16
-18 -11 -44 17 -47 17 -23 -3 21 -18 23 -23 10 -32 -13 -8 -13 -10 3 -10 20 0
21 -4 6 -33 -11 -21 -11 -21 14 1 23 22 26 22 30 5 5 -17 5 -17 6 1 1 12 6 16
16 12 44 -18 47 -17 21 4 -27 22 -27 24 -10 31 17 7 17 8 2 8 -21 1 -22 5 -7
33 17 31 4 32 -16 1z"/>
<path d="M8971 2433 c-1 -17 -4 -39 -7 -48 -8 -19 -55 -45 -86 -46 -14 -1 -7
-5 17 -10 43 -10 75 -40 75 -70 0 -10 5 -19 10 -19 6 0 10 9 10 20 0 29 44 70
77 71 26 1 26 2 -9 13 -48 15 -61 28 -75 79 -11 40 -11 41 -12 10z"/>
<path d="M9355 2364 c-18 -18 -16 -33 7 -47 35 -22 66 21 36 51 -16 16 -23 15
-43 -4z"/>
<path d="M6181 2310 c-19 -11 -9 -45 14 -45 13 0 21 8 23 21 3 23 -17 37 -37
24z"/>
<path d="M6271 2310 c-19 -11 -9 -45 14 -45 13 0 21 8 23 21 3 23 -17 37 -37
24z"/>
<path d="M4245 2296 c-63 -27 -107 -110 -90 -168 22 -73 79 -118 149 -118 43
0 86 18 86 37 0 11 -5 11 -30 -2 -134 -69 -255 112 -139 209 92 78 218 6 205
-116 -5 -49 7 -66 18 -25 19 73 -12 145 -77 176 -50 24 -79 26 -122 7z"/>
<path d="M5250 2195 c0 -108 1 -115 20 -115 19 0 20 7 20 115 0 108 -1 115
-20 115 -19 0 -20 -7 -20 -115z"/>
<path d="M8252 2288 c-7 -7 -12 -21 -12 -33 0 -44 60 -63 80 -26 14 27 13 37
-6 55 -18 19 -45 21 -62 4z"/>
<path d="M8575 2255 c-17 -52 -27 -66 -57 -85 -18 -11 -42 -20 -53 -21 -12 0
-5 -6 19 -15 53 -19 74 -40 82 -80 6 -35 24 -47 24 -16 0 36 38 81 80 93 l41
12 -37 13 c-47 16 -62 32 -79 80 -11 33 -14 36 -20 19z"/>
<path d="M4532 2238 c-28 -28 0 -82 51 -101 9 -3 9 -8 1 -17 -9 -9 -17 -9 -32
-1 -15 8 -23 7 -31 -2 -27 -33 62 -53 94 -21 23 24 15 56 -22 79 -39 24 -43
40 -8 31 29 -7 48 20 24 35 -20 13 -63 11 -77 -3z"/>
<path d="M4676 2219 c-33 -39 -33 -78 -1 -113 54 -58 150 -19 148 61 -2 79
-97 112 -147 52z m93 -23 c7 -8 11 -27 9 -43 -2 -23 -8 -29 -35 -31 -27 -3
-35 1 -44 21 -22 49 37 93 70 53z"/>
<path d="M4860 2165 c0 -78 2 -85 20 -85 17 0 20 7 20 46 0 54 14 84 39 84 24
0 31 -19 31 -81 0 -42 3 -49 20 -49 18 0 20 7 20 68 0 54 -4 72 -18 85 -21 19
-45 21 -73 7 -13 -7 -19 -7 -19 0 0 5 -9 10 -20 10 -18 0 -20 -7 -20 -85z"/>
<path d="M5066 2219 c-33 -39 -33 -78 -1 -113 54 -58 150 -19 148 61 -2 79
-97 112 -147 52z m93 -23 c7 -8 11 -27 9 -43 -2 -23 -8 -29 -35 -31 -27 -3
-35 1 -44 21 -22 49 37 93 70 53z"/>
<path d="M5345 2225 c-31 -30 -33 -82 -4 -119 16 -21 29 -26 63 -26 23 0 50 6
60 13 16 12 16 14 3 26 -12 10 -21 10 -38 1 -16 -9 -28 -9 -45 -1 -42 19 -26
31 41 31 63 0 65 1 65 25 0 38 -42 75 -85 75 -25 0 -44 -8 -60 -25z m103 -33
c2 -8 -11 -12 -37 -12 -29 0 -41 4 -41 14 0 27 69 25 78 -2z"/>
<path d="M5510 2243 c0 -5 14 -43 31 -85 40 -99 55 -101 91 -10 44 108 42 102
19 102 -15 0 -24 -12 -38 -50 -10 -27 -21 -50 -24 -50 -4 0 -15 23 -25 50 -13
35 -23 50 -36 50 -10 0 -18 -3 -18 -7z"/>
<path d="M5717 2230 c-33 -26 -43 -70 -23 -108 18 -34 33 -42 86 -42 42 0 74
25 51 39 -7 5 -26 4 -41 -2 -22 -8 -32 -8 -44 2 -29 24 -17 31 49 31 59 0 65
2 65 21 0 11 -13 34 -29 50 -35 35 -77 38 -114 9z m74 -20 c31 -17 22 -30 -21
-30 -42 0 -52 12 -22 29 21 13 20 13 43 1z"/>
<path d="M5970 2135 c0 -108 1 -115 20 -115 16 0 20 7 20 33 0 32 0 32 44 29
37 -3 46 0 65 23 25 32 27 65 6 104 -21 41 -76 56 -103 29 -9 -9 -12 -9 -12 0
0 7 -9 12 -20 12 -19 0 -20 -7 -20 -115z m120 55 c23 -43 -20 -92 -60 -70 -23
12 -27 59 -8 78 19 19 56 14 68 -8z"/>
<path d="M6177 2244 c-4 -4 -7 -43 -7 -86 0 -77 0 -78 25 -78 26 0 26 0 23 82
-2 65 -6 83 -18 86 -9 1 -19 0 -23 -4z"/>
<path d="M6267 2244 c-4 -4 -7 -49 -7 -101 0 -76 -3 -93 -15 -93 -23 0 -18
-27 6 -33 13 -3 28 2 40 14 17 17 19 31 17 117 -2 78 -6 97 -18 100 -9 1 -19
0 -23 -4z"/>
<path d="M6370 2232 c-32 -26 -38 -90 -11 -124 20 -25 27 -27 86 -26 l65 1 0
83 c0 77 -2 84 -20 84 -11 0 -20 -5 -20 -12 0 -9 -3 -9 -12 0 -18 18 -63 15
-88 -6z m88 -34 c19 -19 15 -66 -8 -78 -40 -22 -83 27 -60 70 12 22 49 27 68
8z"/>
<path d="M6560 2165 c0 -78 2 -85 20 -85 17 0 20 7 20 53 0 60 10 80 36 75 16
-3 20 -14 22 -66 3 -58 4 -62 27 -62 23 0 24 4 27 63 3 59 4 62 28 62 24 0 25
-3 28 -62 3 -55 6 -63 22 -63 18 0 20 7 20 69 0 93 -31 123 -92 90 -14 -8 -23
-8 -31 0 -15 15 -60 14 -75 -1 -9 -9 -12 -9 -12 0 0 7 -9 12 -20 12 -18 0 -20
-7 -20 -85z"/>
<path d="M6872 2229 c-29 -26 -37 -63 -22 -100 17 -40 35 -48 109 -48 l62 1
-3 81 -3 81 -61 3 c-49 2 -65 -1 -82 -18z m97 -41 c11 -29 3 -56 -20 -69 -39
-20 -75 23 -58 69 6 16 17 22 39 22 22 0 33 -6 39 -22z"/>
<path d="M7066 2231 c-23 -26 -13 -57 25 -76 30 -16 43 -53 14 -41 -8 3 -21 9
-29 12 -18 7 -31 -27 -14 -38 19 -12 72 -10 86 4 7 7 12 24 12 40 0 20 -8 31
-29 43 -42 21 -51 39 -18 33 36 -7 56 16 28 31 -30 16 -56 13 -75 -8z"/>
<path d="M4247 2218 c-38 -20 -38 -21 -35 -77 l3 -56 80 -3 c89 -3 105 6 105
62 0 40 -9 53 -53 76 -45 24 -52 24 -100 -2z m83 -13 c7 -8 19 -15 26 -15 10
0 14 -13 14 -45 l0 -45 -70 0 -70 0 0 45 c0 32 4 45 14 45 7 0 19 7 26 15 7 8
20 15 30 15 10 0 23 -7 30 -15z"/>
<path d="M4264 2176 c-3 -8 -4 -25 -2 -38 2 -18 10 -24 35 -26 39 -4 60 25 43
58 -13 24 -68 28 -76 6z m59 -20 c7 -18 -1 -26 -25 -26 -11 0 -18 7 -18 20 0
23 35 28 43 6z"/>
<path d="M3086 2116 c-18 -46 -52 -75 -93 -77 -11 0 -4 -7 17 -16 51 -22 69
-41 82 -87 l11 -41 9 35 c12 45 34 68 83 91 27 12 33 18 20 18 -39 2 -82 38
-97 82 l-14 42 -18 -47z"/>
<path d="M5880 2100 c0 -13 7 -20 20 -20 13 0 20 7 20 20 0 13 -7 20 -20 20
-13 0 -20 -7 -20 -20z"/>
<path d="M1713 2038 c21 -34 21 -38 0 -39 -16 0 -16 -1 1 -8 14 -5 16 -10 8
-15 -7 -4 -17 -17 -23 -28 -11 -21 -11 -21 20 1 l31 22 1 -23 c1 -23 1 -23 8
2 5 17 9 21 14 12 5 -6 17 -17 29 -23 20 -11 20 -10 4 12 -20 30 -20 36 2 42
16 4 16 5 0 6 -24 1 -23 10 5 39 l22 25 -25 -14 c-35 -19 -71 -19 -95 0 -19
16 -19 15 -2 -11z"/>
<path d="M7980 2040 c-1 -36 -14 -53 -52 -67 -32 -11 -32 -12 -6 -12 32 -1 58
-25 58 -54 1 -18 4 -15 15 11 8 19 24 36 35 39 26 7 25 16 -2 28 -13 6 -28 26
-35 45 -10 30 -12 32 -13 10z"/>
<path d="M1946 1924 c-22 -22 -20 -50 5 -68 22 -15 48 -11 61 8 14 21 8 55
-11 66 -27 14 -37 13 -55 -6z"/>
<path d="M8337 1867 c-4 -15 -18 -32 -30 -36 -20 -8 -21 -10 -3 -16 10 -5 24
-22 32 -39 11 -27 13 -28 14 -8 0 14 12 29 33 42 27 17 29 20 11 20 -24 0 -40
15 -46 45 -3 17 -5 15 -11 -8z"/>
<path d="M4480 1829 c-76 -30 -121 -118 -100 -195 9 -32 10 -51 1 -75 -6 -18
-9 -35 -6 -37 3 -3 21 0 41 6 23 7 45 7 61 1 49 -18 133 -7 133 18 0 11 -6 12
-22 6 -22 -7 -47 -8 -135 -1 -38 3 -41 5 -41 33 0 17 -3 51 -7 76 -24 152 187
209 250 68 16 -33 17 -47 8 -80 -12 -44 0 -62 18 -28 16 30 6 115 -18 147 -23
32 -97 72 -133 71 -14 0 -36 -5 -50 -10z"/>
<path d="M4793 1763 c-37 -84 -9 -233 43 -233 l23 0 -22 37 c-28 48 -30 142
-4 192 21 42 21 41 -4 41 -14 0 -25 -12 -36 -37z"/>
<path d="M4917 1732 c-60 -89 -61 -102 -2 -102 38 0 45 -3 45 -20 0 -13 7 -20
20 -20 13 0 20 7 20 20 0 11 5 20 10 20 6 0 10 9 10 20 0 11 -4 20 -10 20 -6
0 -10 28 -10 65 0 89 -21 88 -83 -3z m43 -32 c0 -24 -4 -30 -21 -30 -20 0 -20
1 -2 30 9 17 19 30 20 30 2 0 3 -13 3 -30z"/>
<path d="M5071 1784 c-20 -14 -22 -23 -18 -55 3 -22 1 -42 -4 -45 -5 -3 -9
-21 -9 -39 0 -40 20 -55 74 -55 27 0 40 6 53 26 16 25 16 28 0 56 -12 22 -14
34 -7 48 14 27 13 37 -10 60 -24 24 -48 25 -79 4z m57 -41 c5 -17 -26 -29 -40
-15 -6 6 -7 15 -3 22 9 14 37 9 43 -7z m7 -87 c0 -10 -8 -24 -18 -30 -24 -15
-53 19 -35 41 16 20 53 12 53 -11z"/>
<path d="M5220 1758 c26 -57 26 -133 0 -183 -24 -48 -24 -45 0 -45 29 0 60 71
60 135 0 64 -31 135 -59 135 -20 0 -20 0 -1 -42z"/>
<path d="M5412 1784 c-34 -24 -31 -79 7 -102 28 -17 28 -19 15 -45 -14 -27
-12 -47 6 -47 16 0 73 113 73 143 0 19 -8 37 -22 49 -28 22 -50 23 -79 2z m63
-49 c0 -13 -8 -21 -22 -23 -19 -3 -23 1 -23 23 0 22 4 26 23 23 14 -2 22 -10
22 -23z"/>
<path d="M5565 1775 c-14 -13 -25 -31 -25 -40 0 -18 43 -65 60 -65 7 0 3 -14
-9 -33 -21 -34 -19 -47 6 -47 18 0 73 112 73 149 0 20 -8 35 -22 45 -32 22
-55 20 -83 -9z m65 -40 c0 -18 -5 -25 -19 -25 -11 0 -23 5 -26 10 -11 18 3 40
25 40 15 0 20 -7 20 -25z"/>
<path d="M5725 1775 c-14 -13 -25 -31 -25 -40 0 -18 43 -65 60 -65 7 0 3 -14
-9 -33 -21 -34 -19 -47 6 -47 18 0 73 112 73 149 0 20 -8 35 -22 45 -32 22
-55 20 -83 -9z m65 -40 c0 -18 -5 -25 -19 -25 -11 0 -23 5 -26 10 -11 18 3 40
25 40 15 0 20 -7 20 -25z"/>
<path d="M6045 1775 c-21 -20 -25 -34 -25 -82 0 -74 18 -103 64 -103 56 0 86
57 72 135 -14 71 -67 95 -111 50z m63 -27 c16 -16 15 -90 -2 -113 -7 -10 -20
-16 -28 -12 -17 6 -32 64 -23 91 3 9 7 23 10 31 5 18 26 20 43 3z"/>
<path d="M6482 1784 c-34 -24 -31 -79 7 -102 28 -17 28 -19 15 -45 -14 -27
-12 -47 6 -47 16 0 73 113 73 143 0 19 -8 37 -22 49 -28 22 -50 23 -79 2z m63
-49 c0 -13 -8 -21 -22 -23 -19 -3 -23 1 -23 23 0 22 4 26 23 23 14 -2 22 -10
22 -23z"/>
<path d="M6652 1793 c-38 -15 -53 -107 -28 -168 14 -32 19 -35 55 -35 53 0 71
26 71 103 0 48 -4 62 -25 82 -23 24 -45 29 -73 18z m56 -93 c3 -66 -9 -90 -35
-74 -22 14 -30 98 -12 120 25 30 44 12 47 -46z"/>
<path d="M6796 1779 c-30 -24 -33 -34 -10 -43 10 -4 22 0 28 10 7 9 21 15 32
12 35 -6 27 -36 -25 -91 -28 -30 -51 -59 -51 -65 0 -8 24 -12 71 -12 62 0 70
2 67 18 -2 11 -14 18 -36 20 l-33 3 31 35 c38 43 41 95 8 118 -30 21 -50 20
-82 -5z"/>
<path d="M5886 1773 c-16 -55 -17 -90 -3 -96 7 -3 20 -1 27 3 21 13 40 0 40
-25 0 -32 -17 -40 -46 -24 -20 10 -27 10 -37 0 -9 -10 -8 -15 7 -27 28 -20 80
-18 99 4 37 41 10 112 -42 112 -17 0 -22 4 -17 16 3 9 6 18 6 20 0 2 16 4 35
4 24 0 35 5 35 15 0 23 -97 21 -104 -2z"/>
<path d="M6326 1778 c-2 -7 -9 -33 -14 -57 l-10 -43 33 5 c37 6 59 -10 53 -40
-4 -18 -24 -21 -65 -8 -26 8 -32 -12 -11 -33 19 -19 82 -15 101 6 35 38 9 112
-39 112 -19 0 -25 5 -22 18 2 12 14 18 41 20 24 2 37 8 37 18 0 18 -99 20
-104 2z"/>
<path d="M4570 1761 c0 -14 -6 -21 -20 -21 -25 0 -26 -20 -1 -27 11 -3 22 -15
26 -26 l8 -22 4 22 c2 12 14 24 29 27 28 7 23 26 -7 26 -13 0 -19 6 -17 16 2
10 -3 19 -9 21 -8 3 -13 -4 -13 -16z"/>
<path d="M4476 1749 c-14 -11 -26 -27 -26 -35 0 -19 16 -18 24 1 3 8 17 20 31
27 14 6 25 15 25 20 0 15 -27 8 -54 -13z"/>
<path d="M4445 1670 c-8 -13 21 -66 41 -74 27 -10 29 2 6 27 -12 13 -22 28
-22 35 0 15 -17 24 -25 12z"/>
<path d="M6190 1665 c0 -10 11 -15 35 -15 24 0 35 5 35 15 0 10 -11 15 -35 15
-24 0 -35 -5 -35 -15z"/>
<path d="M4590 1640 c-6 -12 -23 -26 -38 -32 -27 -12 -27 -12 -4 -16 26 -4 72
31 72 55 0 20 -18 16 -30 -7z"/>
<path d="M2285 1588 c-16 -35 -27 -45 -59 -54 l-38 -10 41 -16 c33 -13 45 -26
60 -60 11 -24 20 -35 20 -26 2 37 25 68 65 84 l41 17 -31 8 c-36 10 -62 37
-72 73 -7 26 -8 26 -27 -16z"/>
<path d="M8458 1573 l23 -33 -23 -1 c-17 -1 -18 -3 -5 -6 21 -6 21 -7 0 -40
l-18 -26 29 18 c22 14 29 16 36 6 6 -10 9 -10 12 -1 2 7 14 3 33 -12 l30 -23
-23 33 c-21 29 -22 32 -5 33 10 0 13 3 6 6 -18 7 -16 23 5 47 17 20 17 20 -10
3 -34 -21 -38 -21 -39 1 0 16 -1 16 -8 -1 -6 -17 -9 -17 -36 5 l-30 23 23 -32z"/>
<path d="M7940 1586 c0 -4 7 -18 16 -31 15 -24 15 -25 -2 -25 -18 -1 -18 -1
-1 -11 18 -10 18 -12 -4 -35 -25 -27 -15 -32 16 -8 18 13 20 13 27 -3 6 -17 7
-17 7 0 1 23 10 22 40 -5 l25 -23 -17 27 c-21 34 -21 35 1 41 16 4 16 5 0 6
-24 1 -23 14 2 36 27 25 18 31 -14 10 -25 -16 -26 -16 -26 1 -1 18 -1 18 -11
1 -10 -18 -12 -18 -35 4 -13 12 -24 19 -24 15z"/>
<path d="M7470 1466 c0 -4 11 -24 25 -44 l25 -37 -27 -12 -28 -12 28 -1 c35 0
34 -9 -3 -45 -42 -40 -38 -51 7 -20 48 32 53 32 54 -7 l1 -33 9 33 c5 17 13
32 17 32 5 0 21 -13 37 -30 38 -39 43 -31 11 17 l-26 38 27 6 c27 6 23 11 -15
21 -8 2 0 19 25 48 41 48 42 48 -42 -6 -25 -16 -25 -16 -26 17 -1 21 -3 27 -6
14 -9 -36 -20 -37 -57 -5 -20 18 -36 29 -36 26z"/>
<path d="M2685 1269 l-37 -61 -24 39 c-24 37 -24 37 -18 8 3 -16 7 -36 10 -42
4 -16 4 -16 -68 3 -33 8 -62 14 -64 12 -2 -2 24 -20 58 -40 l61 -36 -42 -21
c-22 -12 -41 -23 -41 -25 0 -2 19 0 41 5 23 6 43 8 45 6 2 -2 -5 -33 -15 -70
-11 -37 -18 -67 -16 -67 2 0 20 27 40 60 20 33 38 60 40 60 3 0 13 -17 24 -37
22 -41 26 -36 12 15 -11 38 -11 38 71 16 33 -8 62 -14 63 -12 2 2 -23 19 -56
38 -32 18 -59 36 -59 39 0 4 17 16 38 29 20 12 28 20 17 18 -11 -3 -32 -8 -47
-12 l-27 -6 19 68 c10 38 17 70 16 72 -2 1 -20 -25 -41 -59z"/>
<path d="M6391 1128 c-1 -31 -4 -36 -18 -31 -15 6 -16 4 -5 -9 11 -14 9 -18
-15 -26 l-28 -10 32 -1 c25 -1 31 -5 27 -16 -4 -10 -2 -13 8 -10 9 4 18 -5 25
-22 l11 -28 1 34 c1 27 4 32 19 26 14 -5 15 -4 4 7 -10 10 -6 16 20 30 l33 18
-39 -6 c-38 -7 -38 -6 -25 17 11 22 11 23 -5 10 -19 -16 -20 -16 -34 24 l-10
30 -1 -37z"/>
<path d="M7994 1085 c-44 -67 44 -135 101 -79 20 20 19 68 -1 88 -25 26 -81
20 -100 -9z"/>
<path d="M3737 722 c-39 -43 -8 -112 49 -112 25 0 64 43 64 71 0 50 -80 78
-113 41z"/>
<path d="M7149 679 c-16 -30 3 -69 34 -69 29 0 47 17 47 45 0 45 -60 63 -81
24z"/>
<path d="M4082 533 c-14 -47 -35 -68 -88 -87 l-39 -14 37 -7 c44 -8 73 -37 91
-90 l14 -40 7 37 c8 46 47 84 94 93 l37 7 -40 15 c-50 17 -71 38 -88 87 l-13
38 -12 -39z"/>
</g>
</svg>
